<svg id="Camada_1" data-name="Camada 1" xmlns="http://www.w3.org/2000/svg" viewBox="0 0 791.14 172.36"><defs><style>.cls-1{fill:#4da249;}.cls-2{fill:#a148a5;}.cls-3{fill:#afb64d;}.cls-4{fill:#b64b5c;}.cls-5{fill:#4b67b6;}.cls-6{fill:#fff;}</style></defs><title>teste</title><rect class="cls-1" x="37.9" y="2.46" width="13.2" height="167.42"/><rect class="cls-2" x="75.9" y="2.46" width="13.2" height="167.42"/><rect class="cls-3" y="2.46" width="13" height="167.42"/><rect class="cls-4" x="113.9" y="2.46" width="13.2" height="167.42"/><rect class="cls-5" x="151.9" y="2.46" width="13.2" height="167.42"/><path class="cls-6" d="M261.14,170.5h-12.9l-6.7-42.9h-34l-6.45,42.9h-12.9L213.77,3.1h21.82Zm-51.59-55.8h30L224.93,17.48h-.5Z" transform="translate(-0.95 -0.62)"/><path class="cls-6" d="M279.49,64.85s-7.44-8.93-7.44-20.83V32.86a32.24,32.24,0,1,1,64.48,0V53.69l-12.9,1.49V32.86a19.35,19.35,0,0,0-38.69,0V44a20.85,20.85,0,0,0,4.47,12.4l39.43,46.87s7.69,9.18,7.69,21.33v16.12a32.24,32.24,0,1,1-64.48,0V116.19l12.89-1.49v26a19.35,19.35,0,0,0,38.69,0V124.62c0-7.19-4.71-12.9-4.71-12.9Z" transform="translate(-0.95 -0.62)"/><path class="cls-6" d="M360.83,64.85s-7.44-8.93-7.44-20.83V32.86a32.24,32.24,0,0,1,64.48,0V53.69L405,55.18V32.86a19.34,19.34,0,0,0-38.68,0V44a20.87,20.87,0,0,0,4.46,12.4l39.43,46.87s7.69,9.18,7.69,21.33v16.12a32.24,32.24,0,0,1-64.48,0V116.19l12.9-1.49v26a19.34,19.34,0,0,0,38.68,0V124.62c0-7.19-4.71-12.9-4.71-12.9Z" transform="translate(-0.95 -0.62)"/><path class="cls-6" d="M438.7,170.5V3.1h12.89V170.5Z" transform="translate(-0.95 -0.62)"/><path class="cls-6" d="M479.86,64.85s-7.44-8.93-7.44-20.83V32.86a32.24,32.24,0,1,1,64.48,0V53.69L524,55.18V32.86a19.35,19.35,0,0,0-38.69,0V44a20.87,20.87,0,0,0,4.46,12.4l39.44,46.87s7.68,9.18,7.68,21.33v16.12a32.24,32.24,0,1,1-64.48,0V116.19l12.9-1.49v26a19.35,19.35,0,0,0,38.69,0V124.62c0-7.19-4.71-12.9-4.71-12.9Z" transform="translate(-0.95 -0.62)"/><path class="cls-6" d="M609.57,16H586.5V170.5H573.36V16H550V3.1h59.53Z" transform="translate(-0.95 -0.62)"/><path class="cls-6" d="M639.57,16V80.23h30V93.37h-30V157.6h42.66v12.9H626.68V3.1h53.57V16Z" transform="translate(-0.95 -0.62)"/><path class="cls-6" d="M763.57,170.5H750.68L744,127.6H710l-6.44,42.9h-12.9L716.21,3.1H738ZM712,114.7h30L727.36,17.48h-.49Z" transform="translate(-0.95 -0.62)"/><path class="cls-6" d="M779.2,170.5V3.1h12.89V170.5Z" transform="translate(-0.95 -0.62)"/></svg>